<?xml version="1.0" encoding="UTF-8"?>
<svg id="Layer_1" data-name="Layer 1" xmlns="http://www.w3.org/2000/svg" viewBox="0 0 2059.29 486.32">
  <defs>
    <style>
      .cls-1 {
        fill: #1a1a1a;
        stroke-width: 0px;
      }
    </style>
  </defs>
  <polygon class="cls-1" points="1724.52 95.28 1691.09 38.82 1669.49 100.76 1654.73 143.05 1633.11 204.99 1666.52 261.44 1729.96 368.62 1733.34 374.33 1573.75 374.33 1556.29 424.48 1784 424.48 1784 361.46 1733.84 276.72 1688.14 199.5 1702.9 157.21 1733.84 209.5 1784 294.23 1784 195.79 1733.84 111.04 1724.52 95.28"/>
  <polygon class="cls-1" points="826.09 95.28 792.66 38.82 771.06 100.76 756.31 143.05 734.69 204.99 768.1 261.44 831.53 368.62 834.91 374.33 675.32 374.33 657.87 424.48 885.57 424.48 885.57 361.46 835.42 276.72 789.72 199.5 804.47 157.21 835.42 209.5 885.57 294.23 885.57 195.79 835.42 111.04 826.09 95.28"/>
  <polygon class="cls-1" points="1376.54 222.44 1426.61 190.05 1426.61 62.45 1215.01 62.45 1244.51 112.52 1376.54 112.52 1376.54 162.81 1312.28 204.37 1312.22 154.83 1262.15 154.83 1262.21 424.62 1312.28 424.62 1312.28 324.42 1379.08 424.62 1439.27 424.62 1326.19 255.01 1376.54 222.44"/>
  <polygon class="cls-1" points="840.92 62.45 925.48 205.33 925.48 424.62 975.55 424.62 975.55 289.92 1036 392.05 1094.19 392.05 899.1 62.45 840.92 62.45"/>
  <polygon class="cls-1" points="1506.33 245.89 1589.41 245.89 1606.99 195.58 1506.33 195.58 1506.33 112.76 1635.93 112.76 1653.52 62.45 1456.02 62.45 1456.02 424.49 1527.16 424.49 1544.74 374.18 1506.33 374.18 1506.33 245.89"/>
  <polygon class="cls-1" points="1856.37 317.83 1812.54 243.81 1812.54 424.47 2010.91 424.47 1981.11 374.15 1826.3 112.72 1916.82 112.72 1916.82 209.47 1967.14 294.25 1967.14 62.41 1738.04 62.41 1767.84 112.72 1922.65 374.15 1862.85 374.15 1862.85 328.77 1856.37 317.83"/>
  <polygon class="cls-1" points="702.17 62.37 622.81 289.96 566.71 117.29 541.2 38.8 514.04 116.72 406.48 424.42 459.35 424.42 539.53 195.21 595.64 367.87 621.15 446.36 648.31 368.44 755.02 62.37 702.17 62.37"/>
  <polygon class="cls-1" points="448.35 62.45 349.31 348.34 249.83 231.33 393.44 62.45 327.72 62.45 216.97 192.69 184.11 231.34 216.97 269.98 330.29 403.26 367.94 447.52 386.97 392.61 501.35 62.45 448.35 62.45"/>
  <polygon class="cls-1" points="1108.1 205.24 1179.44 205.24 1166.94 247.72 1145.11 321.82 1021.03 112.26 1211.03 112.26 1181.33 61.86 932.63 61.86 962.47 112.26 1125.65 387.89 1160.74 447.15 1180.19 381.07 1231.99 205.24 1246.83 154.82 1078.4 154.82 1108.1 205.24"/>
  <polygon class="cls-1" points="244.36 424.6 310.08 424.6 145.32 231.3 288.99 62.75 223.27 62.75 98.44 209.11 98.44 62.45 48.37 62.45 48.37 424.6 98.44 424.6 98.44 286.3 112.42 269.91 244.36 424.6"/>
</svg>